HIERARCHY
ROOT Hips
{
	OFFSET -0.001795 -0.223333 0.028219
	CHANNELS 6 Xposition Yposition Zposition Zrotation Yrotation Xrotation 
	JOINT LeftUpLeg
	{
		OFFSET 0.069520 -0.091406 -0.006815
		CHANNELS 3 Zrotation Yrotation Xrotation
		JOINT LeftLeg
		{
			OFFSET 0.034277 -0.375199 -0.004496
			CHANNELS 3 Zrotation Yrotation Xrotation
			JOINT LeftFoot
			{
				OFFSET -0.013596 -0.397961 -0.043693
				CHANNELS 3 Zrotation Yrotation Xrotation
				JOINT LeftToe
				{
					OFFSET 0.026358 -0.055791 0.119288
					CHANNELS 3 Zrotation Yrotation Xrotation
					End Site
					{
						OFFSET 0.000000 0.000000 0.000000
					}
				}
			}
		}
	}
	JOINT RightUpLeg
	{
		OFFSET -0.067670 -0.090522 -0.004320
		CHANNELS 3 Zrotation Yrotation Xrotation
		JOINT RightLeg
		{
			OFFSET -0.038290 -0.382569 -0.008850
			CHANNELS 3 Zrotation Yrotation Xrotation
			JOINT RightFoot
			{
				OFFSET 0.015774 -0.398415 -0.042312
				CHANNELS 3 Zrotation Yrotation Xrotation
				JOINT RightToe
				{
					OFFSET -0.025372 -0.048144 0.123348
					CHANNELS 3 Zrotation Yrotation Xrotation
					End Site
					{
						OFFSET 0.000000 0.000000 0.000000
					}
				}
			}
		}
	}
	JOINT Spine
	{
		OFFSET -0.002533 0.108963 -0.026696
		CHANNELS 3 Zrotation Yrotation Xrotation
		JOINT Spine1
		{
			OFFSET 0.005487 0.135180 0.001092
			CHANNELS 3 Zrotation Yrotation Xrotation
			JOINT Spine2
			{
				OFFSET 0.001457 0.052922 0.025425
				CHANNELS 3 Zrotation Yrotation Xrotation
				JOINT Neck
				{
					OFFSET -0.002778 0.213870 -0.042857
					CHANNELS 3 Zrotation Yrotation Xrotation
					JOINT Head
					{
						OFFSET 0.005152 0.064970 0.051349
						CHANNELS 3 Zrotation Yrotation Xrotation
						End Site
						{
							OFFSET 0.000000 0.000000 0.000000
						}
					}
				}
				JOINT LeftShoulder
				{
					OFFSET 0.078845 0.121749 -0.034090
					CHANNELS 3 Zrotation Yrotation Xrotation
					JOINT LeftArm
					{
						OFFSET 0.090977 0.030469 -0.008868
						CHANNELS 3 Zrotation Yrotation Xrotation
						JOINT LeftForeArm
						{
							OFFSET 0.259612 -0.012772 -0.027456
							CHANNELS 3 Zrotation Yrotation Xrotation
							JOINT LeftHand
							{
								OFFSET 0.249234 0.008986 -0.001171
								CHANNELS 3 Zrotation Yrotation Xrotation
								End Site
								{
									OFFSET 0.000000 0.000000 0.000000
								}
							}
						}
					}
				}
				JOINT RightShoulder
				{
					OFFSET -0.081759 0.118833 -0.038615
					CHANNELS 3 Zrotation Yrotation Xrotation
					JOINT RightArm
					{
						OFFSET -0.096012 0.032551 -0.009143
						CHANNELS 3 Zrotation Yrotation Xrotation
						JOINT RightForeArm
						{
							OFFSET -0.253742 -0.013329 -0.021401
							CHANNELS 3 Zrotation Yrotation Xrotation
							JOINT RightHand
							{
								OFFSET -0.255298 0.007772 -0.005559
								CHANNELS 3 Zrotation Yrotation Xrotation
								End Site
								{
									OFFSET 0.000000 0.000000 0.000000
								}
							}
						}
					}
				}
			}
		}
	}
}
MOTION
Frames: 5
Frame Time: 0.050000
-0.154512 0.922921 -0.245028 -0.172191 -6.977215 7.898061 11.988518 0.363665 -19.979702 -6.274759 1.095989 9.580437 8.952060 18.238095 14.485566 0.000000 0.000000 0.000000 -11.209290 0.958830 -21.879534 8.679531 -1.076042 12.114651 -6.036291 -16.972523 11.271058 0.000000 0.000000 0.000000 5.544442 -2.454260 32.408047 -5.122132 1.676044 -24.694715 -5.047800 8.614409 24.185273 16.713896 -4.121474 -38.959302 0.000000 0.000000 0.000000 -11.978244 -27.965077 11.602768 -38.268963 -34.390677 4.372524 25.736733 -56.169559 -11.374949 0.000000 0.000000 0.000000 21.526291 12.685221 7.624601 52.804579 40.782413 11.432387 -5.354598 42.871183 0.805394 0.000000 0.000000 0.000000 
-0.155127 0.922876 -0.244925 -0.223680 -7.143041 7.813394 12.109369 0.400422 -20.022538 -6.449565 1.148664 9.813219 8.996017 18.290733 14.305484 0.000000 0.000000 0.000000 -11.126179 0.973771 -21.750415 8.721558 -1.075550 12.055692 -6.102023 -17.106478 11.280137 0.000000 0.000000 0.000000 5.695792 -2.482798 32.381838 -5.201088 1.693153 -24.635978 -4.987278 8.467312 24.253935 16.588301 -4.159403 -38.696127 0.000000 0.000000 0.000000 -12.426997 -27.692243 11.601478 -38.195569 -33.781519 4.164983 27.270864 -57.322213 -12.462737 0.000000 0.000000 0.000000 21.867427 12.460170 7.469936 53.000292 40.111682 11.115507 -5.707792 43.794021 0.722806 0.000000 0.000000 0.000000 
-0.155862 0.922839 -0.244723 -0.217912 -7.388342 7.875276 12.122661 0.421029 -20.104592 -6.456703 1.170101 10.093809 8.990309 18.261424 14.108823 0.000000 0.000000 0.000000 -11.086628 0.999887 -21.920434 8.763464 -1.076847 12.222706 -6.207530 -17.309417 11.156206 0.000000 0.000000 0.000000 5.651442 -2.441081 32.321790 -5.116782 1.670561 -24.578096 -5.009443 8.476917 24.121792 16.529305 -4.184310 -38.477124 0.000000 0.000000 0.000000 -12.676499 -27.537017 11.595861 -37.940931 -33.234479 3.957811 28.403608 -58.761759 -13.476769 0.000000 0.000000 0.000000 22.352916 12.232045 7.365219 52.904301 39.362351 10.676016 -5.352897 45.062620 0.921685 0.000000 0.000000 0.000000 
-0.156766 0.922678 -0.244324 -0.202396 -7.592699 7.866539 12.104339 0.425924 -19.977377 -6.586704 1.210693 10.203599 9.064149 18.362220 13.778759 0.000000 0.000000 0.000000 -10.866903 1.039257 -21.938255 8.575658 -1.036226 12.411910 -6.198981 -17.287388 10.932907 0.000000 0.000000 0.000000 5.623010 -2.407392 32.262870 -5.035160 1.650991 -24.386124 -4.990918 8.473278 23.957035 16.331375 -4.140357 -38.281164 0.000000 0.000000 0.000000 -12.938943 -27.285801 11.541151 -37.872380 -32.864763 3.842310 29.376353 -60.315862 -14.467721 0.000000 0.000000 0.000000 22.677614 12.002684 7.235088 53.085596 38.659867 10.367219 -5.023479 46.502367 1.133781 0.000000 0.000000 0.000000 
-0.157827 0.922440 -0.243786 -0.206428 -7.827556 7.694799 12.166484 0.445749 -19.707533 -6.657089 1.239435 10.307739 9.103316 18.403630 13.610791 0.000000 0.000000 0.000000 -10.757881 1.057848 -21.799995 8.482214 -1.011689 12.588787 -6.124245 -17.140250 10.713739 0.000000 0.000000 0.000000 5.594807 -2.372615 32.304407 -5.131662 1.672125 -24.270750 -5.041173 8.325004 23.990502 16.121155 -4.115664 -38.147774 0.000000 0.000000 0.000000 -13.043057 -27.158351 11.548137 -37.608614 -32.654044 3.726169 29.253596 -61.704561 -14.760907 0.000000 0.000000 0.000000 23.004489 11.900078 7.125832 53.273213 38.163122 10.152392 -3.982106 48.155103 1.649151 0.000000 0.000000 0.000000 
